<svg xmlns="http://www.w3.org/2000/svg" width="22" height="22" fill="none" viewBox="0 0 22 22">
  <path stroke="#D5D9EB" stroke-linecap="round" stroke-linejoin="round" stroke-width="2" d="m5 14 2 2 4.5-4.5M7 7V4.2c0-1.12 0-1.68.218-2.108a2 2 0 0 1 .874-.874C8.52 1 9.08 1 10.2 1h7.6c1.12 0 1.68 0 2.108.218a2 2 0 0 1 .874.874C21 2.52 21 3.08 21 4.2v7.6c0 1.12 0 1.68-.218 2.108a2 2 0 0 1-.874.874C19.48 15 18.92 15 17.8 15H15M4.2 21h7.6c1.12 0 1.68 0 2.108-.218a2 2 0 0 0 .874-.874C15 19.48 15 18.92 15 17.8v-7.6c0-1.12 0-1.68-.218-2.108a2 2 0 0 0-.874-.874C13.48 7 12.92 7 11.8 7H4.2c-1.12 0-1.68 0-2.108.218a2 2 0 0 0-.874.874C1 8.52 1 9.08 1 10.2v7.6c0 1.12 0 1.68.218 2.108a2 2 0 0 0 .874.874C2.52 21 3.08 21 4.2 21Z"/>
</svg>
