<svg xmlns="http://www.w3.org/2000/svg" width="22" height="22" fill="none" viewBox="0 0 22 22">
  <path stroke="#D5D9EB" stroke-linecap="round" stroke-linejoin="round" stroke-width="2" d="m1 11 9.642 4.821c.131.066.197.099.266.111.06.012.123.012.184 0 .069-.012.135-.045.266-.11L21 11M1 16l9.642 4.821c.131.066.197.099.266.111.06.012.123.012.184 0 .069-.012.135-.045.266-.11L21 16M1 6l9.642-4.821c.131-.066.197-.098.266-.111a.5.5 0 0 1 .184 0c.069.013.135.045.266.11L21 6l-9.642 4.821a1.028 1.028 0 0 1-.266.111.501.501 0 0 1-.184 0c-.069-.012-.135-.045-.266-.11L1 6Z"/>
</svg>
